<?xml version="1.0" encoding="utf-8"?>
<!-- Generator: Adobe Illustrator 18.1.1, SVG Export Plug-In . SVG Version: 6.00 Build 0)  -->
<svg version="1.1" id="Capa_1" xmlns="http://www.w3.org/2000/svg" xmlns:xlink="http://www.w3.org/1999/xlink" x="0px" y="0px"
	 viewBox="107.9 584.6 591.7 471.2" enable-background="new 107.9 584.6 591.7 471.2" xml:space="preserve">
<g id="XMLID_1_">
	<g>
		<path d="M681.7,635.9c15,22.5,22.5,48.7,15,75c-11.2,30-37.5,48.7-60,67.5c-33.8,22.5-71.2,41.2-105,60
			c-22.5,11.2-41.2,22.5-63.8,33.8c0-11.2,0-22.5,0-33.8c0-7.5,0-15,0-26.3c0-3.7,0-11.2,0-15c0-3.8,11.3-3.7,15-7.5
			c15-7.5,30-11.2,45-18.8c33.8-15,71.2-33.8,97.5-56.2c15-11.2,18.8-30,11.3-45c-11.3-22.5-37.5-37.5-60-37.5
			c-37.5-3.7-75,3.7-108.8,15l0,0l-15,408.8l-48.7-236.2l15-7.5l-11.2-146.3l0,0c-67.5,37.5-146.2,101.3-191.2,146.3
			c-45,45-75,93.8-108.8,142.5c26.2-60,56.2-116.2,93.8-168.8c37.5-48.7,82.5-93.8,135-131.2s112.5-63.8,180-67.5
			C572.9,579.6,647.9,587.1,681.7,635.9z"/>
	</g>
</g>
</svg>
