<?xml version="1.0" encoding="utf-8"?>
<!-- Generator: Adobe Illustrator 18.1.1, SVG Export Plug-In . SVG Version: 6.00 Build 0)  -->
<svg version="1.1" id="logo" xmlns="http://www.w3.org/2000/svg" xmlns:xlink="http://www.w3.org/1999/xlink" x="0px" y="0px"
	 viewBox="0 370.4 800 222.1" enable-background="new 0 370.4 800 222.1" xml:space="preserve">
<path fill="none" stroke="#000000" d="M146.4,473.5"/>
<g>
	<path d="M243,411.3c6.2,8.4,8.8,18.9,5.5,28.7c-3.7,10.9-13.8,19.1-23.3,25.9c-12.7,9-27,15.8-40.9,23
		c-8.2,4.2-16.4,8.5-24.8,12.5c0.2-4.2,0.4-8.4,0.5-12.6c0.1-3.1,0.3-6.3,0.4-9.4c0.1-1.6-0.4-4.3,0.2-5.9c0.5-1.3,4.1-2.1,5.6-2.7
		c5.7-2.3,11.3-4.7,16.8-7.3c12.9-5.9,27.1-12.4,37.2-22.1c5.1-4.9,7.2-11,4-17.5c-4.2-8.4-13.9-13.8-23.6-14.5
		c-14.3-1-28.7,1.3-42.4,5.2h-0.1l-6,156.9l-17.5-89.6l6.4-2.8l-3.9-56.8v-0.1c-26.1,15-56.4,39.5-73.7,56.7
		c-17.5,17.6-29.2,35.6-41.6,54.7c9.7-22.5,20.9-45.1,35.7-65.2c13.9-19.1,31.7-36.6,51.5-50.5c20.1-14.1,43.6-23.8,68.9-26.1
		C200.4,389.8,229.2,392.6,243,411.3z"/>
</g>
<g>
	<path d="M240.7,470.1h17l21.9,60.9l22.2-60.9h17l-31.4,85.7h-16L240.7,470.1z"/>
	<path d="M347,470.1h16.5v85.7H347V470.1z"/>
	<path d="M398.1,470.1h47.5v16h-31.1v15.5h31.1v15.7h-31.1v22.6h31.1v16h-47.5V470.1z"/>
	<path d="M475.9,470.1h16.5v85.7h-16.5V470.1z"/>
	<path d="M518.4,470.1h48.1v16.1h-15.9v69.6h-16.8v-69.6h-15.4V470.1z"/>
	<path d="M635,468c12.3,0,22.9,4.4,31.8,13.2c8.9,8.8,13.3,19.5,13.3,32.1c0,12.5-4.4,23.1-13.1,31.8c-8.7,8.7-19.4,13-31.8,13
		c-13.1,0-23.9-4.4-32.6-13.3c-8.6-8.9-13-19.5-13-31.7c0-8.2,2-15.7,6-22.6s9.6-12.3,16.6-16.3C619.2,470,626.8,468,635,468z
		 M634.8,483.9c-8.1,0-14.8,2.8-20.3,8.3c-5.5,5.5-8.2,12.5-8.2,21c0,9.5,3.5,17,10.4,22.5c5.4,4.3,11.5,6.5,18.5,6.5
		c7.9,0,14.6-2.8,20.1-8.4c5.5-5.6,8.3-12.5,8.3-20.7c0-8.2-2.8-15.1-8.4-20.7C649.5,486.8,642.8,483.9,634.8,483.9z"/>
</g>
</svg>

